<svg id="Layer_2" data-name="Layer 2" xmlns="http://www.w3.org/2000/svg" viewBox="0 0 220.52 292.95"><defs><style>.cls-1{fill:#fff;}</style></defs><path d="M318.2,274.14c.64,10.27,3.09,21.29,10,29.28A29.65,29.65,0,0,0,344.34,313a40.19,40.19,0,0,0,11.43.5c7-.45,14.15-1.18,20.56-4.14,7.43-3.44,12.26-9.9,14.69-17.59a57.6,57.6,0,0,0,2.28-17.32c0-4.15.05-8.55-2-12.29-3.07-5.61-9.27-8.38-15.2-9.92A67.34,67.34,0,0,0,353,250.77a66.38,66.38,0,0,0-22.16,5.65c-5.33,2.54-10.65,6.48-12.22,12.47a15.08,15.08,0,0,0-.48,4.59c0,.64.11,2.5,1.1,2.5s1.13-1.92,1.1-2.5c0-.3,0-.6,0-.9s.1-.66,0,.08c0-.14,0-.29.05-.43l.06-.43c.07-.51-.13.53,0,0,.09-.32.17-.65.27-1-.18.57.12-.3.18-.44s.24-.53.37-.79a2.13,2.13,0,0,1,.29-.52c.19-.29.38-.59.59-.87a20.14,20.14,0,0,1,6.08-5.26c6-3.62,12.94-5.5,19.78-6.58a75.7,75.7,0,0,1,22.69-.28c5.92.88,12.52,2.61,17,6.9.28.27.79.84,1.13,1.25.19.24.38.49.55.75s.17.25.26.38.36.6.17.27a14,14,0,0,1,.71,1.52c0,.08.21.58,0,.07.05.14.09.29.13.44s.29,1.31.17.62a41.74,41.74,0,0,1,.29,7.64,55.78,55.78,0,0,1-.7,8c-1.24,7.58-4.82,14.64-11.42,18.84-5.7,3.61-12.48,4.8-19.09,5.4a61.61,61.61,0,0,1-12.29.35,28.93,28.93,0,0,1-14.53-5.82c-6.62-5.16-10.13-13.12-11.7-21.18a68.84,68.84,0,0,1-1-8.7c0-.64-.44-2.14-1.35-1.74S318.15,273.41,318.2,274.14Z" transform="translate(-172.78 -136.21)"/><path d="M229.48,279.47c.64,10.27,3.09,21.29,10,29.28a29.59,29.59,0,0,0,16.16,9.55,40.19,40.19,0,0,0,11.43.5c7-.44,14.15-1.17,20.56-4.14,7.43-3.43,12.26-9.89,14.69-17.59a57.56,57.56,0,0,0,2.28-17.32c0-4.15.05-8.55-2-12.29-3.07-5.61-9.27-8.37-15.2-9.91a67.1,67.1,0,0,0-23.08-1.44,66.12,66.12,0,0,0-22.16,5.64c-5.33,2.54-10.65,6.48-12.22,12.47a15.14,15.14,0,0,0-.48,4.59c0,.64.11,2.5,1.1,2.5s1.13-1.92,1.1-2.5c0-.3,0-.59,0-.89s.1-.67,0,.08c0-.15,0-.29,0-.44l.06-.43c.07-.51-.13.53,0,0,.09-.33.17-.65.27-1-.18.57.12-.29.18-.44s.24-.53.37-.79a1.86,1.86,0,0,1,.29-.51c.19-.3.38-.59.59-.88a20.28,20.28,0,0,1,6.08-5.26c6-3.61,12.94-5.5,19.79-6.57a75.31,75.31,0,0,1,22.68-.28c5.92.87,12.52,2.61,17,6.89.28.27.79.84,1.13,1.26.19.24.38.49.55.74l.26.38c0,.06.36.61.17.27a14,14,0,0,1,.71,1.52c0,.09.21.58,0,.07a4.29,4.29,0,0,1,.13.44c.06.2.29,1.31.17.63a41.59,41.59,0,0,1,.29,7.63,55.78,55.78,0,0,1-.7,8c-1.24,7.58-4.82,14.64-11.42,18.84-5.7,3.62-12.48,4.8-19.09,5.4a60.87,60.87,0,0,1-12.29.35A28.84,28.84,0,0,1,244.34,308c-6.62-5.16-10.13-13.12-11.7-21.18a68.62,68.62,0,0,1-1-8.7c0-.64-.44-2.14-1.35-1.74S229.43,278.75,229.48,279.47Z" transform="translate(-172.78 -136.21)"/><path d="M303.69,280.65c4.29-5,10.65-5.82,15.42-1,.89.9,1.2-2.85,1.22-3.14.09-1.34.39-4.43-.69-5.54-3.08-3.13-6.95-4.78-11.2-2.92a15,15,0,0,0-5.28,3.88c-1.05,1.24-.79,4-.69,5.54,0,.37.48,4,1.22,3.14Z" transform="translate(-172.78 -136.21)"/><path d="M229.61,278.1a14.22,14.22,0,0,0-9.46,3.93c-1,.92-1.7,2.27-2.71,3.1-1.38,1.13,0,1-2.07,1-1.82,0-3.9-1.81-5.54-2.52-8.4-3.63-18.24-3.85-26.22,1-7.28,4.42-10.9,12.23-10.82,20.62.08,10,5.29,18.67,11.53,26.16,6.51,7.8,14.2,15.83,23.12,20.88a30,30,0,0,0,12.37,4.11c1.47.11,4.29-.67,5.27.13.4.31.62,1.55.81,2a161.64,161.64,0,0,0,17.57,32.2c9.92,14,22.06,24.81,38.32,30.63,13.58,4.86,28.63,8.78,43.19,7.57,10.85-.91,18.76-7.9,25.5-16.15,12.84-15.71,20.47-34.86,28.12-53.42,8.59-20.81,14-41.53,10.84-64.2-.63-4.52-3.28-1.22-2.86,1.8,2.76,19.91-2,38-9.54,56.34-6.76,16.46-13.39,33.13-23.65,47.8-5.91,8.45-14.24,19-25.19,20.67-8.58,1.28-17.42.31-25.88-1.37C285.38,417,269,411.14,256.58,398.8c-9.76-9.71-17.35-21.55-23.48-33.82-1.91-3.82-3.7-7.71-5.3-11.68-.43-1.06-.75-2.49-1.68-3.25-1.15-.94-2.54-.42-4-.37a22.56,22.56,0,0,1-8.1-1.22c-10.85-3.64-19.84-13.1-27.11-21.53-7.8-9.06-17.11-23.22-5.75-33.42,8.52-7.64,21.19-7.19,30.79-1.91,3.6,2,4.37,2.7,6.94-.64,2.79-3.63,6-5.86,10.67-6.11,2.14-.11,2-6.86,0-6.75Z" transform="translate(-172.78 -136.21)"/><path d="M294.34,243.75a.9.9,0,0,1,.58.4,5.59,5.59,0,0,1,1.7,4.11,4.2,4.2,0,0,1-1.13,2.24,9.17,9.17,0,0,1-2.92,2.06,2.65,2.65,0,0,1-.74.19,57.38,57.38,0,0,0-14.12-1.9l-1.47,0c-1.34,0-2.69.07-4,.15-.67,0-1.35.06-2,.13l-2,.24-2.24.1c-1.4.12-3.37.34-5.65.58l-3.6.58-1.91.3-1.92.42-3.89.82-3.69,1-2.77.74c-.82.27-1.57.5-2.25.7a27.05,27.05,0,0,1-3.23.79c-1.64.25-2.23,0-2.06-.57a8.63,8.63,0,0,1,2.67-2.73c.75-.59,1.64-1.23,2.63-1.9s2.14-1.26,3.32-1.92a19.93,19.93,0,0,1,3.16-1.69l3.83-1.6,2.21-.9,2.36-.78,2.38-.78,1.18-.38,1.17-.3,4.24-1.06,4.24-.78c1.29-.2,2.6-.22,3.91-.31l2-.11c.66,0,1.32,0,2,0h1.68A66.48,66.48,0,0,1,294.34,243.75Z" transform="translate(-172.78 -136.21)"/><path d="M325.19,252.69c-.07,0-.1.05-.3-.1a10,10,0,0,1-2.53-2.41,8.65,8.65,0,0,1-1.25-2.17,8.52,8.52,0,0,1-.53-3,1.21,1.21,0,0,1,.11-.49,62.71,62.71,0,0,1,5.69-2.72,76.71,76.71,0,0,1,12.51-4,80,80,0,0,1,12.94-1.74l4.3,0a12,12,0,0,1,1.21,0l.42,0s1.55.33,3.57.88c1,.3,2.14.75,3.25,1.18a19,19,0,0,1,3.17,1.52c3.28,1.74,4,2.94,3.41,3.73s-2.45,1.2-4.53,1.3c.09.09-.47.05-1.38.1s-2.14.09-3.38.13-2.48.21-3.41.27l-1.54.15a11.84,11.84,0,0,0-1.4,0c-.88,0-2.15,0-3.68,0a71.08,71.08,0,0,0-11.12,1.55,67.06,67.06,0,0,0-10.78,3.49c-1.43.6-2.61,1.16-3.42,1.57S325.25,252.66,325.19,252.69Z" transform="translate(-172.78 -136.21)"/><path d="M285.41,278.06l.08.2a3.13,3.13,0,0,0,.39.82c.07.1,0-.1-.77-.36l-.24-.08-1.23-.54c-.76-.28-1.76-.7-3-1.07a38.1,38.1,0,0,0-4-1.07,37.14,37.14,0,0,0-4.53-.64,33.63,33.63,0,0,0-4.47-.07,35,35,0,0,0-3.91.4c-2.29.36-3.84.75-3.84.75s-1.06.09-2.52.35a24.18,24.18,0,0,0-4.82,1.31,10,10,0,0,0-2.83,1.53c.22-.18,1.08-1.26,2.22-2.58a7.67,7.67,0,0,1,.77-.86c.53-.56,1.29-1.31,2.12-2a27.14,27.14,0,0,1,2.4-1.89l1.18-.8,1.17-.54a23,23,0,0,1,3.21-1.11,22.38,22.38,0,0,1,4.81-.75,21.92,21.92,0,0,1,5.6.48,20.83,20.83,0,0,1,5.26,1.91,18.23,18.23,0,0,1,4,2.83,14.12,14.12,0,0,1,2.25,2.62A13.26,13.26,0,0,1,285.41,278.06Z" transform="translate(-172.78 -136.21)"/><path d="M373.32,272.5l.08.2a3.13,3.13,0,0,0,.39.82c.07.1,0-.1-.77-.36l-.24-.09-1.23-.53c-.75-.28-1.76-.7-3-1.07a38.1,38.1,0,0,0-4-1.07,37.14,37.14,0,0,0-4.53-.64,33.63,33.63,0,0,0-4.47-.07,34.57,34.57,0,0,0-3.9.4c-2.3.36-3.85.75-3.85.75s-1.06.09-2.52.35a24.18,24.18,0,0,0-4.82,1.31,10,10,0,0,0-2.83,1.53c.22-.18,1.08-1.26,2.22-2.58a7.94,7.94,0,0,1,.77-.86c.53-.56,1.29-1.31,2.12-2a28.68,28.68,0,0,1,2.4-1.89l1.18-.8,1.17-.54a21.72,21.72,0,0,1,3.21-1.11,22.38,22.38,0,0,1,4.81-.75,21.92,21.92,0,0,1,5.6.48,20.83,20.83,0,0,1,5.26,1.91,18.23,18.23,0,0,1,4,2.83,14.12,14.12,0,0,1,2.25,2.62A10.89,10.89,0,0,1,373.32,272.5Z" transform="translate(-172.78 -136.21)"/><path d="M290.52,310.81c-3.67,4.82-6.14,12.62-.91,17.24,2.82,2.5,6.8,3.47,10.42,4a5.73,5.73,0,0,0,3-.59c.31-.14,1.53-.84.56-1-5-.79-11.43-2.74-12.55-8.48-.66-3.42.67-6.95,2.34-9.88a20.14,20.14,0,0,1,1.38-2.15c.44-.57-1.59-.32-1.71-.3a4.28,4.28,0,0,0-2.56,1.12Z" transform="translate(-172.78 -136.21)"/><path d="M333.17,307.46a34.5,34.5,0,0,1,3.38,7.45c1.22,3.77,2.12,8.85-.87,12.07a6.07,6.07,0,0,1-2.78,1.75c-.39.14.53-.14-.18,0q-.35.11-.69.18l-.15,0-.9.15a25.8,25.8,0,0,1-3.17.18,4.08,4.08,0,0,0-2.89,1.07c-.58.79.5.88,1.06.87,6,0,14.34-1.73,15.79-8.61.94-4.48-.71-9.24-2.61-13.24a29.79,29.79,0,0,0-1.65-3.11c-.72-1.18-4.8.43-4.34,1.16Z" transform="translate(-172.78 -136.21)"/><path d="M301.47,324.65a20,20,0,0,0,8.18,5c6.55,2.11,13.24-.57,17.74-5.48.63-.67.48-1.4-.44-1.66a3.51,3.51,0,0,0-3.07.83c-1.77,1.92-4,3.82-6.54,4.29a10.49,10.49,0,0,1-5.78-.73,17.46,17.46,0,0,1-6.07-4c-1.11-1.16-5.24.47-4,1.75Z" transform="translate(-172.78 -136.21)"/><path d="M336.32,360.38A37,37,0,0,1,325,366.75a41.67,41.67,0,0,1-29-.13c-8-3-15.11-8.1-21.3-14-.77-.72-1.31,1.38-1.36,1.75a3.64,3.64,0,0,0,.77,3.08c9.81,9.3,22.18,16.64,36,16.84a43.19,43.19,0,0,0,22.9-6.37,28.3,28.3,0,0,0,3.88-2.74,3.57,3.57,0,0,0,.77-3.07c-.05-.38-.57-2.44-1.36-1.75Z" transform="translate(-172.78 -136.21)"/><ellipse cx="96.46" cy="140.13" rx="5.05" ry="5"/><ellipse cx="184.9" cy="134.06" rx="5.05" ry="5"/><path d="M219.32,308.56h0a1.86,1.86,0,0,1-.48-.88l-4.26-12.51a6.58,6.58,0,0,0-1.72-2.65c-4-3.71-7-7.77-7.59-7.93l-11.68-3.12c-.49-.12-1.28,3.2-1.52,2.76-3.9-7.36-36.88-91.35,18.9-109.51,18.56-49.71,139.55-51,167.18-5.6s0,57.23-31.6,57.89a116.2,116.2,0,0,1-37.35-5.88c-17.09-5.95-27.55-14.4-27.55-14.4l40.13,6.18c1.28.69-12.09,10.83-13.38,11.49-10.92,5.48-49.44,22.62-79.33,8.39a1.79,1.79,0,0,0-2.56,1.51l-4.12,73.11A1.79,1.79,0,0,1,219.32,308.56Z" transform="translate(-172.78 -136.21)"/><path d="M285.88,218.74s54.19,10.2,71.8,10.71,22.76,16.71,22.76,16.71,28.74-32.06-2.29-77" transform="translate(-172.78 -136.21)"/><path class="cls-1" d="M340.25,163.81a69.74,69.74,0,0,0,6.46,3.13c.34.14.83.35,1.42.63l1,.45.9.45c.53.26,1.05.56,1.59.84a82.06,82.06,0,0,1,13.33,9.45,30.65,30.65,0,0,1,5.4,5.91,17.19,17.19,0,0,1,2.64,6.24,13,13,0,0,1,.25,2.74,10.69,10.69,0,0,1-.09,1.17l0,.35h0l-.3-.21c-1.75-1.24-2.71-1.88-3.22-2.23l-.57-.38s-.94-.64-2.6-1.7c-.84-.52-1.85-1.16-3.08-1.82a9.11,9.11,0,0,0-2.25-.94l-.2,0-.1,0h-.19a1.15,1.15,0,0,0-.85.38,1.18,1.18,0,0,0-.25.74,1.45,1.45,0,0,0,0,.25l0,.13a1.76,1.76,0,0,0,.31.51,3.48,3.48,0,0,0,.24.28c.31.33.61.61.93.9,2.48,2.24,5.41,4.64,8.12,7.54a20.52,20.52,0,0,1,3.49,4.72c.1.21.19.43.27.64s0,.06,0,.09h0l-.34-.13-1.44-.56a58.93,58.93,0,0,1-5.78-2.72c-.45-.25-.9-.49-1.34-.75l-.61-.37-.86-.51c-1.07-.7-1.95-1.28-2.42-1.65-2.35-1.74-3.77-2.57-5.93-4a15.22,15.22,0,0,0,4.78,5.59c.5.39,1.41,1,2.53,1.73l.89.54.63.38c.46.27.93.52,1.4.78a58.6,58.6,0,0,0,6,2.81l1.49.59.4.14.74.26,1.47.48.36.12.19,0s.07,0,.07,0V206a10.65,10.65,0,0,0-.05-1.37,7.47,7.47,0,0,0-.15-.74c-.05-.22-.18-.57-.21-.66a7.27,7.27,0,0,0-.34-.81,22.37,22.37,0,0,0-3.83-5.21c-2.82-3-5.82-5.47-8.23-7.64-.3-.27-.59-.54-.82-.79l-.14-.16,0-.06h0l-.17.1-.2.1-.13.07-.15,0-.09,0c-.08,0-.06,0-.08,0s.08.17.09.41a2.22,2.22,0,0,1,0,.37c0,.2,0,.06,0,.11h0l.08,0a8.46,8.46,0,0,1,1.69.74c1.15.61,2.14,1.24,3,1.75,1.63,1,2.55,1.67,2.55,1.67l.57.38,3.18,2.2,1.24.89,1.25.9c.06,0,.13.12.17.1l.05-.21.11-.44.24-.94a13.57,13.57,0,0,0,.44-3.17,15.43,15.43,0,0,0-.28-3.14,19,19,0,0,0-2.94-7,32.6,32.6,0,0,0-5.73-6.3,83.46,83.46,0,0,0-13.67-9.69c-.56-.29-1.1-.6-1.65-.87l-.94-.46-1-.47c-.62-.29-1.13-.5-1.49-.65A16.38,16.38,0,0,0,340.25,163.81Z" transform="translate(-172.78 -136.21)"/><path class="cls-1" d="M341.36,203.25c2.37,1,3.7,1.9,6.33,3.2.44.23,1.16.6,2.65,1.44a47.8,47.8,0,0,0,7.05,3.47,19.45,19.45,0,0,0,2,.59l.85.15h0l0,0-.71.37c-1.06.54-1.92.94-2.6,1.23-1.36.57-2,.76-2,.76l-.56.17-1.55.44a25.15,25.15,0,0,1-5.32.66,27,27,0,0,1-6.72-.74,25.94,25.94,0,0,1-5.95-2.2,21.68,21.68,0,0,1-2.35-1.34,13.79,13.79,0,0,1-1.3-.9l-.84-.59-.74-.58c-.49-.35-.95-.66-1.37-1s-.9-.62-1.34-1l-1.43-1.08c.28.58.54,1.11.81,1.63a12.67,12.67,0,0,0,.95,1.43,9.36,9.36,0,0,0,1.2,1.36l.73.7c.26.22.56.44.87.67a17,17,0,0,0,1.4,1,23.56,23.56,0,0,0,2.52,1.44,28.06,28.06,0,0,0,6.38,2.36,29.15,29.15,0,0,0,7.22.79,27.33,27.33,0,0,0,5.74-.72c1.42-.4,2.28-.66,2.28-.66s.67-.21,2.11-.82c.72-.3,1.63-.72,2.72-1.28l1-.5,1.78-1,4.05-2.26.73-.4.1-.05.05,0H368l-.37,0-.79.05c-1.05.08-2.44.12-3.93.17l-1.15,0a4.64,4.64,0,0,1-.94-.08l-1-.18c-.56-.15-1.17-.3-1.77-.52a48.25,48.25,0,0,1-6.75-3.34c-1.5-.83-2.25-1.23-2.72-1.45A12.25,12.25,0,0,0,341.36,203.25Z" transform="translate(-172.78 -136.21)"/><path class="cls-1" d="M262.67,153.62a34,34,0,0,0,7.23.26l1.75-.1,1.23-.07,2.61-.1c.94,0,1.91-.06,2.9-.07a101.66,101.66,0,0,1,25.93,2.68,46.45,46.45,0,0,1,11.79,4.63,27.46,27.46,0,0,1,8,6.82l1.24,1.79c.37.57.64,1.17.93,1.71l.42.78c.12.26.2.52.3.76l.51,1.35.2.53,0,.11.05.18,0,.15,0,.11v0h0l-.64-.36c-.35-.17-2-1.17-5.6-2.78a41.15,41.15,0,0,0-7.12-2.49l-1.16-.26a6.17,6.17,0,0,0-.62-.1l-1.11-.16c-.4-.05-.75,0-1.14-.07l-1,0c-.68,0-1.3,0-2.07.12l-2.24.19-.46,0h-.08l0,0,.17.09.33.16,1.37.68,2.83,1.44,1.45.75.34.19.26.15.33.19a79.57,79.57,0,0,1,9.53,6.66,53.64,53.64,0,0,1,5.24,4.84,16.91,16.91,0,0,1,1.19,1.37,15.63,15.63,0,0,1,1.06,1.44,7.94,7.94,0,0,1,.42.75l.05.09h0s0,0,0,0l-.85,0h-.92q-.93,0-1.83-.06t-1.8-.12l-.53-.05-.22,0c-.57-.07-1.13-.12-1.63-.2-1-.14-1.83-.3-2.34-.39-2.87-.58-4.52-.73-7.08-1.08a15.63,15.63,0,0,0,6.71,3c.52.09,1.39.27,2.44.41.53.08,1.1.14,1.7.21l.23,0,.54.05c.62.06,1.25.1,1.88.13s1.26.06,1.9.06h1l1,0c1.07-.17,3.2.32,2.11-1.32l-.28-.88a1.54,1.54,0,0,0-.17-.42l-.17-.32a8.89,8.89,0,0,0-.51-.91,17.69,17.69,0,0,0-1.18-1.62c-.41-.52-.84-1-1.28-1.47a57.34,57.34,0,0,0-5.45-5,79.62,79.62,0,0,0-9.78-6.82l-.34-.21-.09,0h.1a5.43,5.43,0,0,1,.56.09l1.08.24a39.7,39.7,0,0,1,6.78,2.38c3.49,1.56,5.11,2.53,5.45,2.7l1.44.81c.6.35,1.14.69,1.6,1l1.18.73.23.15c.06,0,.19.15.13,0l-.08-.36-.23-.91-.32-1.28-.38-1.55-.25-1a5.28,5.28,0,0,0-.24-.68c-.17-.45-.35-.94-.56-1.47-.1-.27-.2-.55-.32-.83l-.45-.86c-.33-.58-.62-1.23-1-1.86l-1.34-1.94a29.52,29.52,0,0,0-8.59-7.33,49,49,0,0,0-12.28-4.83,102.76,102.76,0,0,0-26.44-2.74c-1,0-2,0-2.95.06l-2.64.11-1.24.07-1.78.12A21.71,21.71,0,0,0,262.67,153.62Z" transform="translate(-172.78 -136.21)"/></svg>