<?xml version="1.0" standalone="no"?>
<!DOCTYPE svg PUBLIC "-//W3C//DTD SVG 20010904//EN"
 "http://www.w3.org/TR/2001/REC-SVG-20010904/DTD/svg10.dtd">
<svg version="1.0" xmlns="http://www.w3.org/2000/svg"
 width="1172.000000pt" height="1172.000000pt" viewBox="0 0 1172.000000 1172.000000"
 preserveAspectRatio="xMidYMid meet">
<metadata>
Created by potrace 1.11, written by Peter Selinger 2001-2013
</metadata>
<g transform="translate(0.000000,1172.000000) scale(0.100000,-0.100000)"
fill="#000000" stroke="none">
<path d="M6029 11706 c-2 -2 -51 -7 -109 -11 -162 -10 -191 -13 -240 -19 -25
-3 -72 -8 -105 -11 -68 -7 -208 -28 -340 -51 -22 -4 -48 -7 -57 -8 -10 0 -18
-4 -18 -9 0 -4 -4 -6 -8 -3 -5 3 -34 -2 -64 -10 -31 -8 -68 -15 -82 -16 -14
-1 -26 -6 -26 -11 0 -4 -4 -6 -8 -3 -7 4 -148 -30 -266 -64 -21 -7 -46 -13
-55 -15 -25 -6 -282 -95 -316 -110 -16 -7 -51 -22 -77 -34 -26 -12 -50 -21
-54 -21 -13 0 -279 -134 -331 -167 -29 -18 -57 -33 -63 -33 -5 0 -10 -5 -10
-11 0 -5 -4 -8 -9 -5 -5 4 -11 3 -13 -2 -2 -6 -73 -57 -136 -97 -47 -31 -262
-209 -262 -218 0 -2 -26 -30 -57 -63 -62 -64 -122 -136 -137 -163 -5 -9 -12
-18 -16 -21 -3 -3 -20 -27 -38 -55 -17 -27 -35 -54 -39 -60 -17 -21 -96 -188
-96 -201 0 -8 -4 -14 -9 -14 -4 0 -8 -6 -8 -14 0 -12 -26 -28 -50 -31 -3 0 -9
-3 -15 -6 -5 -4 -28 -12 -50 -19 -38 -12 -174 -72 -205 -90 -8 -5 -46 -27 -84
-49 -38 -23 -73 -41 -77 -41 -5 0 -9 -4 -9 -8 0 -5 -21 -23 -48 -40 -91 -60
-254 -214 -313 -297 -18 -25 -36 -45 -41 -45 -4 0 -8 -5 -8 -10 0 -10 -37 -68
-51 -80 -3 -3 -16 -25 -30 -50 -13 -25 -26 -47 -29 -50 -8 -8 -51 -98 -51
-107 0 -4 -7 -15 -14 -23 -7 -8 -17 -28 -21 -45 -4 -16 -10 -34 -14 -40 -10
-14 -71 -185 -65 -185 2 0 -3 -16 -11 -35 -8 -19 -12 -35 -9 -35 3 0 1 -8 -4
-18 -5 -10 -12 -38 -16 -62 -4 -25 -9 -48 -11 -52 -5 -8 -30 -155 -38 -230
-21 -175 -27 -540 -12 -708 4 -47 9 -110 12 -140 2 -30 7 -73 10 -95 3 -22 5
-50 6 -62 0 -13 3 -23 7 -23 3 0 6 -15 6 -32 1 -42 12 -116 31 -205 3 -16 6
-36 6 -45 -1 -10 4 -20 9 -23 5 -4 7 -11 4 -16 -6 -9 52 -282 87 -404 10 -38
21 -81 24 -95 3 -14 8 -34 11 -45 4 -11 8 -22 8 -25 6 -25 28 -100 35 -120 4
-14 23 -72 41 -130 18 -58 36 -109 41 -114 4 -6 8 -17 8 -25 0 -13 95 -274
108 -296 17 -28 10 -43 -21 -50 -17 -4 -34 -9 -37 -9 -3 -1 -16 -6 -30 -10
-48 -15 -180 -79 -180 -88 0 -4 -6 -8 -13 -8 -22 0 -217 -167 -217 -185 0 -5
-26 -37 -48 -61 -7 -8 -10 -14 -6 -14 4 0 0 -8 -8 -17 -38 -45 -110 -220 -124
-299 -2 -13 -7 -36 -10 -51 -11 -47 -13 -275 -3 -333 20 -118 24 -138 32 -160
2 -8 15 -46 27 -85 13 -38 39 -104 58 -145 19 -41 36 -77 36 -80 7 -29 156
-254 235 -353 83 -105 106 -132 194 -232 33 -38 124 -133 202 -210 167 -167
219 -213 355 -316 83 -62 235 -159 249 -159 5 0 11 -4 13 -8 7 -17 223 -108
278 -118 14 -2 59 -11 100 -19 52 -11 107 -14 178 -11 116 5 132 -2 150 -67
24 -86 271 -614 294 -628 5 -3 10 -10 10 -15 1 -28 294 -524 327 -554 3 -3 28
-39 56 -80 27 -41 58 -84 67 -94 10 -11 20 -28 24 -38 3 -10 9 -18 13 -18 4 0
23 -21 41 -47 19 -27 37 -50 40 -53 3 -3 43 -50 90 -105 131 -155 292 -311
440 -428 47 -37 91 -72 99 -79 40 -33 265 -178 277 -178 8 0 14 -3 14 -7 0 -5
10 -13 23 -19 12 -5 54 -26 92 -46 129 -67 334 -153 410 -172 6 -2 17 -6 25
-9 56 -22 406 -129 430 -132 8 -1 42 -10 75 -19 33 -10 69 -20 80 -21 11 -2
65 -13 120 -25 94 -20 125 -26 185 -35 14 -2 41 -6 60 -9 128 -20 280 -31 455
-30 178 0 283 5 300 13 5 3 16 6 25 7 46 6 97 17 113 25 9 5 17 8 17 5 0 -9
229 90 240 104 3 3 28 20 56 37 50 31 107 72 169 123 81 67 312 311 339 359 5
9 16 23 25 31 8 8 39 49 70 90 30 41 59 76 63 78 4 2 8 8 8 13 0 9 56 94 78
117 6 7 12 17 12 22 0 5 6 15 13 22 6 8 18 25 26 38 8 14 35 59 61 100 44 71
110 188 156 275 59 112 154 305 152 309 -2 2 5 12 14 22 9 11 17 22 17 27 1 4
7 23 15 42 9 20 16 39 16 43 1 4 9 15 17 24 9 10 14 18 10 18 -3 0 10 32 29
70 19 39 34 74 34 78 0 4 7 21 16 37 8 17 31 68 50 115 19 47 41 99 48 115 8
17 46 109 86 205 39 96 78 187 86 203 8 15 12 27 9 27 -3 0 1 12 9 28 14 24
105 252 111 277 1 6 7 22 13 36 6 15 27 76 47 135 20 60 39 116 42 124 3 8 7
20 9 25 8 35 54 185 63 208 6 15 9 27 6 27 -2 0 1 15 6 33 11 35 45 168 54
214 8 38 13 58 15 58 1 0 3 14 5 30 2 17 6 41 10 55 3 14 8 41 11 60 3 19 7
42 9 50 5 17 16 99 20 145 2 17 4 30 5 30 1 0 3 16 5 35 2 19 7 71 11 115 11
105 10 620 -1 710 -14 110 -10 154 23 246 30 81 64 212 76 289 3 19 8 46 10
59 21 99 30 565 13 675 -33 224 -164 392 -395 505 -42 21 -93 43 -112 50 -19
7 -44 17 -55 21 -38 15 -107 32 -200 50 -27 6 -61 12 -75 15 -14 3 -47 8 -75
11 -27 3 -52 7 -55 9 -4 2 -49 7 -100 11 -157 13 -459 8 -590 -11 -19 -3 -55
-7 -80 -10 -91 -11 -147 -20 -178 -29 -9 -3 -28 -7 -42 -10 -80 -14 -106 -19
-115 -25 -5 -3 -19 -7 -30 -9 -24 -4 -48 -10 -55 -12 -3 -1 -8 -2 -12 -1 -5 0
-8 -4 -8 -11 0 -6 -3 -9 -6 -5 -12 12 -365 -127 -397 -157 -7 -6 -29 -20 -50
-30 -20 -11 -37 -23 -37 -28 0 -4 -6 -8 -13 -8 -8 0 -50 -34 -95 -75 -89 -84
-160 -187 -188 -275 -17 -55 -34 -86 -34 -62 0 7 -7 12 -15 12 -8 0 -15 4 -15
8 0 8 -81 50 -115 60 -53 14 -137 13 -192 -3 -32 -9 -60 -16 -62 -15 -2 1 -7
-2 -10 -7 -3 -5 -26 -21 -51 -35 -25 -15 -58 -38 -74 -52 -31 -27 -37 -31 -34
-18 4 13 -24 86 -52 138 -41 75 -93 134 -180 203 -63 49 -233 135 -312 157
-116 33 -154 43 -183 49 -77 16 -120 23 -180 30 -27 3 -61 8 -75 11 -66 13
-389 20 -505 10 -90 -8 -177 -16 -214 -21 -80 -11 -98 -14 -156 -24 -89 -16
-105 -20 -123 -25 -9 -3 -28 -7 -42 -10 -14 -3 -50 -12 -80 -21 -30 -9 -68
-20 -85 -24 -32 -9 -134 -48 -230 -88 -189 -80 -359 -205 -451 -334 -30 -42
-72 -126 -79 -159 -2 -8 -4 -15 -5 -15 -2 0 -5 -16 -13 -57 -3 -15 -8 -32 -11
-37 -4 -5 -2 -13 4 -16 8 -5 7 -11 -1 -21 -6 -8 -8 -14 -3 -14 16 0 -17 -25
-34 -26 -34 -1 -106 -17 -138 -30 -18 -8 -36 -14 -40 -14 -3 0 -3 60 1 133 5
72 8 167 9 209 1 43 3 78 6 78 3 0 5 26 6 58 1 31 4 111 8 177 4 66 9 154 12
195 2 41 6 113 8 160 3 47 7 130 10 185 3 55 8 134 11 175 7 105 16 271 20
363 5 117 34 148 111 120 21 -8 44 -15 49 -17 6 -2 30 -12 55 -23 64 -28 197
-73 265 -88 6 -2 28 -7 50 -13 22 -6 52 -13 67 -16 15 -2 31 -7 35 -9 5 -3 31
-8 58 -11 28 -3 63 -8 79 -11 17 -4 55 -9 85 -12 76 -7 601 -10 601 -3 0 3 15
6 33 7 17 0 57 4 87 8 30 3 71 8 90 10 19 2 46 6 60 9 49 11 101 20 175 31 11
2 20 4 20 5 0 2 21 6 69 14 21 3 42 8 46 11 6 4 50 13 90 20 8 1 22 5 30 8 8
3 66 20 129 37 106 30 247 73 281 88 8 3 20 7 25 7 6 1 23 7 38 13 16 7 34 12
41 12 6 0 16 4 22 8 5 5 32 17 59 27 28 9 64 23 80 30 35 15 68 28 75 29 3 1
30 13 61 27 30 15 72 32 92 38 20 7 37 17 37 22 0 5 3 8 8 7 24 -5 222 96 243
125 3 4 27 3 55 -3 27 -6 67 -12 89 -15 22 -3 51 -7 65 -10 29 -6 49 -9 150
-25 41 -6 86 -14 100 -17 14 -2 39 -6 55 -8 17 -2 46 -7 65 -10 19 -3 51 -8
70 -11 19 -2 60 -9 90 -14 30 -5 72 -12 92 -14 21 -3 53 -7 70 -10 18 -3 49
-8 68 -10 19 -3 51 -8 70 -11 19 -2 51 -7 70 -9 34 -5 81 -11 158 -21 20 -3
51 -7 67 -10 33 -5 99 -12 190 -20 33 -3 76 -8 95 -11 45 -6 144 -14 245 -19
86 -4 182 -13 218 -21 12 -3 36 -8 52 -11 17 -3 32 -8 35 -11 3 -4 14 -8 25
-10 40 -6 166 -69 246 -123 51 -34 158 -134 199 -185 54 -67 79 -107 133 -216
l44 -88 26 28 c15 16 27 32 27 36 0 5 11 22 25 40 38 47 37 46 81 121 34 57
113 217 155 310 21 48 94 274 103 320 3 11 9 40 15 65 6 25 13 61 16 80 2 19
6 44 9 55 8 39 19 151 21 216 1 37 5 71 7 75 3 5 2 18 -2 29 -4 11 -4 30 1 43
5 12 5 22 -1 22 -5 0 -5 12 0 29 4 16 6 32 3 35 -3 2 -7 29 -8 58 -7 104 -20
201 -43 323 -3 17 -5 38 -6 48 0 9 -4 17 -8 17 -4 0 -6 8 -6 18 1 9 -7 43 -17
76 -9 32 -19 66 -20 75 -2 9 -4 16 -5 16 -1 0 -3 7 -5 15 -5 24 -81 230 -103
280 -11 25 -34 77 -53 115 -18 39 -33 72 -34 75 0 3 -20 40 -44 82 -23 43 -42
80 -41 84 1 4 -4 10 -12 15 -7 5 -13 12 -13 16 -1 4 -13 27 -28 50 -15 24 -27
47 -27 53 0 5 -4 10 -9 10 -5 0 -13 9 -16 20 -3 11 -12 26 -18 32 -7 7 -32 45
-56 83 -24 39 -48 72 -53 73 -4 2 -8 8 -8 14 0 16 -134 180 -215 263 -77 80
-350 295 -374 295 -6 0 -11 5 -11 10 0 6 -6 10 -14 10 -8 0 -16 3 -18 8 -8 19
-371 215 -381 206 -2 -3 -10 2 -17 11 -7 8 -18 15 -25 15 -7 0 -37 11 -67 25
-115 53 -345 132 -558 191 -139 39 -156 44 -185 49 -11 1 -74 15 -140 29 -66
14 -136 27 -155 30 -19 3 -44 7 -55 10 -11 2 -40 7 -65 10 -25 3 -56 8 -70 12
-14 3 -47 7 -75 9 -27 3 -70 7 -95 11 -25 3 -58 8 -75 9 -16 2 -30 3 -30 4 0
1 -31 4 -70 6 -38 3 -101 7 -140 11 -75 7 -740 15 -746 10z m3196 -4771 c39
-4 81 -9 95 -10 14 -1 39 -5 55 -8 17 -4 50 -9 75 -12 49 -7 223 -50 255 -64
11 -4 56 -23 100 -42 44 -18 86 -39 93 -46 7 -7 17 -13 22 -13 5 0 15 -6 22
-12 7 -7 31 -26 52 -42 109 -82 172 -188 183 -308 12 -142 1 -459 -17 -508 -1
-3 -2 -12 -1 -21 1 -9 -5 -50 -14 -90 -9 -41 -18 -84 -21 -96 -2 -12 -9 -35
-16 -50 -6 -16 -12 -30 -13 -33 -10 -39 -76 -181 -108 -235 -37 -62 -216 -258
-217 -237 0 4 -6 0 -13 -8 -16 -20 -99 -72 -162 -102 -27 -12 -53 -27 -57 -33
-4 -5 -8 -7 -8 -3 0 4 -21 -2 -46 -12 -25 -11 -56 -22 -69 -24 -14 -3 -29 -7
-35 -11 -5 -3 -18 -8 -28 -10 -9 -1 -36 -8 -60 -14 -23 -7 -47 -9 -52 -6 -6 3
-10 1 -10 -4 0 -6 -3 -10 -7 -9 -7 2 -87 -8 -138 -18 -11 -1 -47 -6 -80 -9
-33 -3 -69 -7 -80 -9 -79 -15 -398 -23 -482 -12 -24 3 -60 8 -82 11 -21 2 -50
9 -65 14 -14 6 -26 8 -26 5 0 -4 -7 -1 -15 6 -9 7 -18 10 -21 7 -3 -3 -29 5
-59 18 -29 13 -56 21 -59 18 -3 -4 -6 0 -6 7 0 7 -2 11 -5 8 -3 -3 -29 7 -58
23 -29 15 -67 36 -84 45 -18 9 -33 20 -33 25 0 5 -5 9 -11 9 -39 0 -219 182
-294 295 -102 156 -197 393 -230 575 -15 85 -16 95 -31 230 -13 127 -12 165 8
218 29 76 98 161 191 235 15 12 38 30 49 40 12 9 26 17 31 17 6 0 18 6 26 14
74 67 457 206 661 241 19 3 42 8 50 10 8 2 35 7 60 10 25 3 59 7 75 10 17 3
44 7 60 10 17 2 68 7 115 11 47 4 86 7 87 9 7 5 386 -3 448 -10z m-3598 -209
c51 -4 103 -9 115 -11 13 -2 44 -6 69 -9 53 -8 82 -13 124 -21 17 -4 40 -8 52
-10 11 -2 30 -6 41 -9 11 -4 29 -9 39 -11 69 -15 274 -100 281 -117 2 -5 8 -8
13 -8 12 0 79 -49 127 -92 33 -30 120 -149 123 -167 0 -3 2 -15 5 -26 22 -116
22 -465 0 -585 -3 -14 -8 -43 -11 -65 -4 -22 -9 -49 -10 -60 -2 -11 -8 -35
-14 -52 -5 -18 -7 -33 -5 -33 3 0 2 -6 -3 -12 -4 -7 -8 -20 -10 -28 -1 -9 -10
-34 -19 -55 -10 -22 -19 -46 -20 -53 -1 -7 -17 -41 -34 -75 -82 -158 -186
-279 -313 -364 -40 -26 -75 -52 -78 -56 -3 -5 -9 -8 -13 -8 -3 1 -27 -9 -54
-23 -96 -48 -259 -96 -412 -121 -25 -4 -52 -9 -61 -10 -25 -5 -109 -15 -164
-20 -27 -3 -79 -8 -115 -11 -84 -9 -365 -9 -410 0 -19 4 -48 8 -65 11 -148 21
-366 118 -495 220 -46 37 -180 173 -180 183 0 6 -3 12 -8 14 -13 5 -72 91 -72
105 0 7 -4 13 -10 13 -5 0 -10 7 -10 15 0 8 -5 15 -12 15 -6 0 -9 3 -5 6 3 3
-4 23 -16 43 -41 66 -121 292 -142 396 -3 17 -8 41 -10 55 -17 83 -38 266 -39
340 0 38 15 110 23 110 4 0 8 6 8 13 0 21 43 77 113 147 62 62 167 140 188
140 6 0 12 3 14 8 3 7 98 55 178 90 106 47 331 114 425 127 11 2 20 4 20 5 0
2 25 7 75 14 25 4 70 11 100 16 73 12 151 21 228 24 35 2 65 5 67 7 6 7 284 3
382 -5z m1466 -630 c42 -5 122 -45 164 -83 26 -23 33 -38 38 -83 3 -30 10 -73
16 -95 6 -22 10 -47 11 -55 1 -34 62 -251 79 -282 5 -10 9 -22 9 -27 0 -5 8
-26 17 -47 9 -22 16 -42 15 -46 -1 -5 3 -8 8 -8 5 0 9 -3 8 -7 -2 -11 35 -87
45 -91 4 -2 7 -9 7 -14 0 -13 61 -112 72 -116 5 -2 8 -10 8 -18 0 -8 4 -14 8
-14 4 0 15 -13 24 -28 29 -48 228 -242 249 -242 24 0 128 -247 154 -366 39
-177 18 -306 -64 -391 -30 -32 -83 -65 -111 -69 -66 -12 -115 -17 -176 -19
-41 -2 -84 -10 -103 -19 -31 -17 -49 -41 -38 -53 9 -8 214 -1 225 7 1 2 10 3
20 4 87 9 228 65 296 119 50 39 85 78 86 94 0 6 4 13 9 15 5 2 18 32 29 68 16
51 20 86 17 160 -4 104 -5 113 -36 212 -21 69 -22 86 -4 79 137 -52 402 -77
615 -57 36 3 94 8 130 11 66 6 86 8 175 19 50 6 82 11 133 22 15 3 40 7 56 10
136 25 404 138 473 199 6 5 26 21 44 35 51 39 111 100 164 165 26 33 49 62 51
64 2 2 3 -11 3 -30 0 -19 3 -50 6 -69 6 -42 6 -386 0 -450 -2 -25 -7 -76 -10
-115 -3 -38 -7 -81 -10 -95 -3 -14 -8 -47 -11 -75 -3 -27 -7 -57 -10 -64 -3
-8 -7 -35 -10 -60 -3 -26 -10 -64 -16 -86 -5 -22 -12 -49 -14 -60 -1 -11 -5
-27 -7 -35 -13 -52 -28 -130 -25 -133 2 -2 -3 -11 -11 -20 -7 -10 -11 -17 -8
-17 3 0 2 -12 -3 -27 -28 -92 -62 -210 -65 -225 -2 -9 -9 -26 -15 -37 -6 -12
-8 -21 -5 -21 4 0 3 -6 -2 -12 -4 -7 -8 -15 -9 -18 0 -3 -3 -12 -6 -20 -3 -8
-20 -55 -38 -105 -29 -84 -51 -143 -71 -190 -94 -229 -179 -444 -179 -453 0
-7 -3 -12 -8 -12 -4 0 -12 -15 -18 -32 -29 -84 -51 -137 -62 -150 -6 -8 -13
-23 -15 -34 -4 -22 -13 -42 -57 -139 -17 -38 -38 -83 -45 -100 -48 -109 -118
-260 -135 -290 -11 -19 -20 -37 -20 -40 0 -3 -16 -37 -35 -75 -19 -38 -36 -73
-36 -77 0 -5 -4 -12 -9 -18 -4 -5 -24 -41 -45 -80 -61 -113 -80 -146 -129
-228 -25 -43 -46 -83 -46 -88 0 -5 -4 -9 -10 -9 -5 0 -10 -5 -10 -10 0 -6 -4
-16 -10 -23 -5 -7 -44 -64 -87 -127 -80 -120 -219 -311 -269 -369 -151 -174
-261 -279 -379 -360 -66 -46 -201 -121 -216 -121 -4 0 -20 -5 -36 -12 -15 -6
-32 -12 -38 -13 -5 -2 -30 -8 -55 -15 -25 -7 -56 -14 -70 -15 -14 -2 -52 -6
-85 -10 -111 -14 -453 -8 -592 10 -24 3 -64 8 -90 11 -27 3 -55 7 -63 9 -8 2
-28 6 -45 9 -16 2 -50 8 -75 12 -25 5 -49 9 -55 10 -5 1 -14 3 -20 4 -5 1 -14
3 -20 4 -43 8 -99 20 -145 31 -30 8 -67 16 -82 19 -15 2 -31 7 -36 10 -5 3
-19 7 -33 10 -59 12 -77 17 -129 32 -162 48 -363 115 -370 123 -3 3 -12 7 -20
9 -50 9 -427 188 -461 218 -8 8 -19 14 -22 14 -11 0 -152 92 -155 101 -2 5
-10 9 -18 9 -8 0 -14 5 -14 10 0 6 -7 10 -15 10 -7 0 -18 6 -22 13 -4 6 -27
25 -50 41 -24 16 -43 33 -43 37 0 5 -4 9 -10 9 -41 0 -406 384 -555 585 -17
22 -33 44 -38 50 -61 80 -207 292 -207 301 0 2 -20 35 -45 72 -25 37 -45 72
-45 79 0 7 -4 13 -8 13 -4 0 -20 24 -36 53 -57 107 -71 132 -78 135 -5 2 -8
12 -8 23 0 10 -4 19 -8 19 -5 0 -15 16 -22 35 -8 20 -20 41 -27 47 -7 5 -10
14 -7 19 3 5 0 9 -5 9 -6 0 -10 3 -9 8 1 4 -31 75 -71 157 -75 156 -108 226
-121 260 -4 11 -16 38 -26 60 -10 22 -17 43 -16 48 1 4 -3 7 -9 7 -5 0 -8 4
-5 8 9 15 -42 110 -69 128 -26 17 -37 18 -180 14 -44 -1 -82 -1 -85 0 -3 1
-22 3 -43 6 -44 4 -146 30 -185 46 -15 6 -29 12 -32 13 -60 20 -162 70 -228
112 -29 18 -55 33 -58 33 -8 0 -69 44 -72 53 -2 4 -8 7 -13 7 -6 0 -22 11 -37
25 -15 14 -30 25 -34 25 -5 0 -16 8 -26 18 -10 9 -47 42 -83 72 -70 59 -285
273 -364 361 -88 98 -159 179 -172 197 -7 9 -36 46 -64 82 -214 271 -334 557
-322 762 5 97 8 116 16 124 4 4 7 14 7 23 0 17 57 142 68 151 4 3 20 23 37 45
16 22 43 52 60 66 111 98 99 89 155 119 25 14 47 27 50 30 9 9 144 62 170 66
14 3 39 9 55 14 107 33 306 31 485 -5 14 -3 39 -8 55 -11 17 -3 34 -9 40 -15
5 -5 17 -9 26 -9 15 0 52 -15 169 -67 40 -18 120 -91 120 -109 0 -7 4 -14 9
-16 7 -2 101 -258 115 -313 2 -5 6 -17 9 -25 3 -8 20 -57 37 -107 42 -129 49
-141 80 -148 34 -8 50 -4 72 16 20 17 22 36 33 229 3 63 8 147 10 187 14 231
18 303 19 348 1 28 5 56 9 62 4 6 3 14 -2 18 -41 25 88 88 207 101 45 5 52 3
53 -13 7 -110 69 -360 124 -505 125 -324 333 -571 595 -705 19 -10 38 -22 41
-26 3 -5 9 -8 13 -8 8 1 34 -8 71 -24 155 -65 387 -91 655 -72 142 10 280 23
315 31 11 2 43 7 70 10 28 4 66 11 85 16 19 5 46 11 60 14 58 12 130 35 213
69 70 28 87 32 81 19 -19 -44 -47 -130 -51 -157 -25 -164 11 -284 114 -375
125 -111 409 -187 521 -139 43 18 56 44 25 46 -25 2 -63 10 -101 22 -18 5 -33
9 -35 9 -14 -5 -168 60 -205 87 -39 28 -104 100 -123 137 -25 49 -29 66 -33
144 -3 58 27 213 44 224 4 3 11 16 15 30 12 40 87 162 124 203 37 40 40 43 96
119 37 50 151 258 141 258 -4 0 0 13 9 29 8 16 24 63 35 105 20 72 24 88 35
146 3 14 7 34 9 45 8 41 19 111 22 140 10 100 16 189 16 254 -1 70 1 75 31
103 41 37 140 86 192 94 22 3 41 7 43 9 2 2 19 1 38 -1 19 -2 49 -6 67 -8z"/>
<path d="M8777 6624 c-1 -1 -32 -4 -70 -7 -37 -3 -70 -8 -75 -10 -4 -3 -24 -8
-44 -11 -20 -3 -60 -14 -87 -25 -28 -10 -52 -16 -55 -13 -4 3 -6 0 -6 -6 0 -7
-6 -12 -14 -12 -19 0 -117 -68 -187 -130 -77 -68 -174 -178 -165 -187 4 -4 10
-3 14 3 8 11 101 52 129 57 10 1 23 5 28 9 6 3 29 9 51 12 22 4 51 9 64 11 14
3 41 8 60 10 19 3 62 11 95 18 33 7 75 12 94 12 29 0 35 -4 37 -25 8 -53 15
-71 46 -105 42 -49 83 -68 148 -70 62 -2 110 17 152 62 27 29 61 100 54 112
-3 4 -2 12 2 18 14 23 251 -40 380 -100 23 -11 45 -17 48 -14 3 3 -5 25 -17
49 -30 58 -150 177 -224 220 -63 36 -172 83 -215 92 -14 3 -36 8 -50 11 -44
10 -187 24 -193 19z"/>
<path d="M5127 6386 c-32 -7 -61 -13 -65 -15 -4 -1 -25 -6 -47 -12 -49 -13
-135 -49 -152 -64 -7 -5 -37 -28 -68 -50 -52 -37 -220 -195 -207 -195 3 0 -7
-14 -24 -31 l-29 -31 60 30 c75 38 155 62 260 77 22 3 54 8 70 10 17 3 41 7
55 11 14 3 39 8 55 10 70 12 70 12 72 -28 2 -40 37 -115 62 -136 46 -37 89
-51 148 -48 71 3 122 30 159 86 27 41 32 57 33 107 1 30 3 32 34 27 35 -5 55
-9 102 -19 35 -7 151 -43 180 -55 75 -31 136 -52 140 -48 6 6 -65 115 -92 143
-109 110 -226 178 -370 216 -96 25 -291 33 -376 15z"/>
<path d="M6662 4256 c-39 -14 -72 -41 -72 -61 0 -29 214 -185 254 -185 6 0 16
-4 22 -8 5 -5 29 -14 54 -21 25 -8 56 -17 70 -21 45 -13 175 -11 247 4 80 16
180 59 250 107 61 42 163 138 163 154 0 34 -73 53 -115 31 -11 -6 -51 -39 -90
-74 -163 -146 -298 -165 -497 -68 -79 38 -98 51 -162 107 -47 41 -78 50 -124
35z"/>
<path d="M5486 3030 c-30 -74 -17 -133 39 -185 117 -107 295 -249 373 -296 20
-13 39 -26 42 -29 8 -9 169 -100 176 -100 4 0 15 -7 25 -16 9 -8 23 -16 31
-18 7 -1 39 -14 71 -30 62 -29 247 -97 247 -91 0 2 15 -2 33 -9 35 -15 172
-43 252 -52 66 -7 337 -11 350 -5 6 3 19 6 30 7 23 1 108 14 136 20 10 2 28 6
40 9 11 2 29 7 39 10 10 3 29 8 42 10 33 7 212 68 218 75 3 4 25 14 50 24 108
42 314 175 345 222 26 41 24 136 -5 166 -15 16 -21 14 -91 -38 -40 -30 -79
-58 -85 -62 -46 -32 -213 -114 -269 -132 -22 -7 -46 -17 -52 -23 -7 -5 -13 -7
-13 -4 0 3 -25 -3 -56 -14 -65 -23 -218 -56 -307 -66 -50 -5 -205 -7 -332 -3
-117 4 -358 66 -516 133 -140 61 -380 196 -437 247 -9 8 -42 33 -72 55 -30 22
-60 44 -66 50 -6 5 -38 33 -69 60 -32 28 -72 63 -89 78 -55 51 -62 51 -80 7z"/>
<path d="M8658 7725 c-3 -3 -45 -7 -94 -10 -127 -7 -158 -11 -334 -41 -130
-22 -156 -27 -208 -43 -18 -5 -35 -10 -37 -10 -16 -2 -63 -14 -80 -21 -19 -8
-119 -40 -140 -45 -5 -1 -23 -7 -38 -13 -16 -7 -31 -12 -34 -12 -3 0 -19 -6
-36 -14 -33 -14 -68 -28 -77 -30 -3 -1 -54 -26 -113 -55 l-108 -53 6 -47 c8
-62 10 -71 23 -104 16 -39 51 -86 92 -125 52 -48 66 -55 84 -37 8 8 21 15 29
15 8 0 20 7 27 15 7 8 20 15 29 15 9 0 21 4 26 9 9 8 215 90 240 96 5 1 17 5
25 8 77 30 331 89 445 102 33 4 69 9 80 12 11 2 94 6 185 8 91 3 194 7 230 10
36 3 110 8 165 10 267 13 345 32 345 86 0 73 -356 247 -545 266 -52 5 -55 5
-87 0 -16 -2 -28 0 -28 5 0 5 -6 6 -12 1 -17 -10 -41 -10 -49 0 -3 4 -8 5 -11
2z"/>
<path d="M5418 7495 c-2 -2 -37 -5 -78 -9 -41 -3 -86 -8 -100 -11 -14 -3 -41
-8 -60 -11 -19 -3 -62 -12 -95 -20 -33 -9 -71 -18 -85 -20 -14 -3 -40 -9 -58
-15 -18 -6 -39 -12 -45 -13 -13 -2 -151 -44 -182 -56 -11 -4 -56 -21 -100 -39
-44 -17 -85 -31 -90 -31 -6 0 -16 -5 -23 -12 -6 -6 -17 -13 -24 -14 -25 -3
-212 -97 -243 -121 -6 -4 -26 -17 -45 -27 -67 -38 -175 -119 -213 -160 -46
-50 -45 -71 3 -71 30 0 134 18 165 29 6 2 15 5 20 6 6 1 21 7 35 12 14 5 32
11 40 13 8 2 76 20 150 40 74 20 146 38 160 41 14 3 32 7 40 9 8 2 29 7 45 10
17 2 41 7 55 10 14 3 39 8 55 10 17 3 41 7 55 10 14 3 43 8 65 11 22 2 54 7
70 10 17 3 48 7 70 9 22 2 69 7 105 10 36 4 85 8 110 10 25 2 88 7 140 11 108
10 410 10 485 1 28 -4 70 -9 95 -12 25 -3 59 -8 75 -12 17 -4 35 -7 40 -8 9
-1 94 -17 105 -20 3 -1 17 -5 31 -9 53 -15 177 73 200 143 15 44 18 81 6 81
-4 0 -6 4 -2 9 3 5 1 12 -5 16 -6 4 -8 10 -5 14 8 14 -55 86 -83 94 -62 18
-186 43 -262 53 -25 3 -56 8 -70 10 -60 12 -541 28 -552 19z"/>
</g>
</svg>
